# xmcd
#
# Track frame offsets: 
#        300
#        16108
#        39783
#        60917
#        79171
#        97483
#        118212
#        143957
#        161036
#        183565
#        204333
#        221792
#        241213
#        257158
#
# Disc length: 3732 seconds
#
# Revision: 3
# Processed by: cddbd v1.5.2PL0 Copyright (c) Steve Scherf et al.
# Submitted via: ExactAudioCopy v1.0b1
#
DISCID=c70e900e
DTITLE=Blueass Blues Band - Crossing
DYEAR=2003
DGENRE=General Electric Blues
TTITLE0=Like a Bluesmachine
TTITLE1=The blues is still alive
TTITLE2=Miss you so much
TTITLE3=Behind the smoke
TTITLE4=You hurt me
TTITLE5=Blues for ye', baby
TTITLE6=Hard rain
TTITLE7=Coming home to me
TTITLE8=Can't be cool
TTITLE9=The love train
TTITLE10=Be my baby one more time
TTITLE11=You can't change the world
TTITLE12=Find my baby
TTITLE13=Life is a mystery
EXTD=
EXTT0=
EXTT1=
EXTT2=
EXTT3=
EXTT4=
EXTT5=
EXTT6=
EXTT7=
EXTT8=
EXTT9=
EXTT10=
EXTT11=
EXTT12=
EXTT13=
PLAYORDER=
